<mxfile host="app.diagrams.net" modified="2021-11-16T16:03:13.972Z" agent="5.0 (Macintosh; Intel Mac OS X 10_15_7) AppleWebKit/537.36 (KHTML, like Gecko) Chrome/95.0.4638.69 Safari/537.36" etag="IRTNtlhYvkEONBiUGslo" version="15.6.0" type="github">
  <diagram id="qslSiU4xukWmRmiAImTo" name="00_ReduxPatternComponents">
    <mxGraphModel dx="946" dy="650" grid="1" gridSize="10" guides="1" tooltips="1" connect="1" arrows="1" fold="1" page="1" pageScale="1" pageWidth="827" pageHeight="1169" math="0" shadow="0">
      <root>
        <mxCell id="0" />
        <mxCell id="1" parent="0" />
        <mxCell id="xr_8r1xwscuH5XTfshRI-1" value="&lt;table border=&quot;1&quot; width=&quot;100%&quot; cellpadding=&quot;4&quot; style=&quot;width: 100% ; height: 100% ; border-collapse: collapse&quot;&gt;&lt;tbody&gt;&lt;tr style=&quot;background-color: #a7c942 ; color: #ffffff ; border: 1px solid #98bf21&quot;&gt;&lt;th align=&quot;left&quot;&gt;Redux Store - State&lt;br&gt;(JavaScript Application&lt;br&gt;&amp;nbsp;subscribed to Redux Store)&lt;/th&gt;&lt;th align=&quot;left&quot;&gt;Action&lt;br&gt;(JavaScript Application &lt;br&gt;dispatches actions to update the state &amp;lt;redux store&amp;gt; )&lt;/th&gt;&lt;th align=&quot;left&quot;&gt;Reducer&lt;br&gt;(Handle an action by updating &lt;br&gt;the corresponding &lt;br&gt;current state from the Redux store)&lt;br&gt;Decides the update protocol of the&amp;nbsp;&lt;br&gt;Redux store&lt;/th&gt;&lt;/tr&gt;&lt;tr style=&quot;border: 1px solid #98bf21&quot;&gt;&lt;td&gt;term&lt;br&gt;videos[]&lt;br&gt;selectedVideo&lt;/td&gt;&lt;td&gt;searchVideos(term:string)&lt;br&gt;dispatched&amp;nbsp;when the user enters a new value&amp;nbsp;in&lt;br&gt;the SearchBar component&lt;/td&gt;&lt;td&gt;term = new_term&lt;br&gt;videos[] = videos[](term)&lt;br&gt;selectedVideo = videos[0]&lt;/td&gt;&lt;/tr&gt;&lt;tr style=&quot;background-color: #eaf2d3 ; border: 1px solid #98bf21&quot;&gt;&lt;td&gt;selectedVideo&lt;/td&gt;&lt;td&gt;selectVideo(index: int)&lt;br&gt;dispatched when the user select a VideoItem from the&amp;nbsp;&lt;br&gt;VideoList component&amp;nbsp;&lt;/td&gt;&lt;td&gt;selectedVideo = videos[index]&lt;/td&gt;&lt;/tr&gt;&lt;/tbody&gt;&lt;/table&gt;" style="text;html=1;strokeColor=#c0c0c0;fillColor=#ffffff;overflow=fill;rounded=0;" parent="1" vertex="1">
          <mxGeometry x="40" y="40" width="800" height="500" as="geometry" />
        </mxCell>
      </root>
    </mxGraphModel>
  </diagram>
</mxfile>
